<?xml version="1.0" encoding="UTF-8"?>
<svg width="300" height="300" viewBox="0 0 300 300" xmlns="http://www.w3.org/2000/svg">
  <!-- Background Circle -->
  <circle cx="150" cy="150" r="140" fill="#C41E3A" stroke="#FFD700" stroke-width="12"/>
  
  <!-- TVK Text (larger) -->
  <text x="150" y="130" font-family="Arial, sans-serif" font-size="54" font-weight="bold" text-anchor="middle" fill="#FFD700">TVK</text>
  
  <!-- Canada Text -->
  <text x="150" y="180" font-family="Arial, sans-serif" font-size="24" font-weight="bold" text-anchor="middle" fill="#FFFFFF">CANADA</text>
  
  <!-- Decorative Stars -->
  <polygon points="70,70 73,79 82,79 75,84 78,93 70,88 62,93 65,84 58,79 67,79" fill="#FFD700"/>
  <polygon points="230,70 233,79 242,79 235,84 238,93 230,88 222,93 225,84 218,79 227,79" fill="#FFD700"/>
  
  <!-- Bottom decorative element -->
  <rect x="100" y="220" width="100" height="6" rx="3" fill="#FFD700"/>
  
  <!-- Additional decorative elements -->
  <circle cx="150" cy="50" r="8" fill="#FFD700"/>
  <circle cx="150" cy="250" r="8" fill="#FFD700"/>
</svg>